<svg width="111" height="19" viewBox="0 0 111 19" fill="none" xmlns="http://www.w3.org/2000/svg">
<path d="M9.58138 2.20799C7.42138 2.20799 5.14138 2.712 3.10138 4.39199C2.06938 5.232 0.437378 7.392 0.437378 10.152C0.437378 12.864 1.54138 14.592 2.45338 15.648C3.41338 16.776 5.90938 18.432 9.31738 18.432C11.4054 18.432 13.2774 17.904 13.6614 17.76C13.9254 17.616 14.3334 17.328 14.4294 17.112C14.7414 16.56 15.2454 15.36 15.3414 14.736C15.3894 14.472 15.3894 13.944 15.1254 13.944C15.0054 13.944 14.8854 14.064 14.5974 14.592C14.0214 15.6 13.3974 16.344 12.3894 16.896C11.4294 17.448 10.2534 17.496 9.84538 17.496C7.90138 17.496 5.26138 16.44 3.89338 13.728C3.36538 12.672 3.07738 11.352 3.07738 9.744C3.07738 6.12 5.40538 2.952 9.24538 2.952C10.5414 2.952 11.7894 3.264 13.0374 4.248C13.3734 4.488 13.8054 5.208 14.0454 6C14.1414 6.384 14.3094 6.648 14.4294 6.648C14.6454 6.648 14.8134 6.336 14.7894 5.832C14.7414 5.28 14.6454 4.272 14.6454 3.72C14.6454 3.216 14.4054 3.024 14.2854 3C13.8774 2.952 13.0854 2.664 12.4854 2.568C11.5734 2.376 10.4694 2.20799 9.58138 2.20799Z" fill="#333333"/>
<path d="M21.2656 8.328C20.8096 8.328 20.0176 8.448 19.3936 8.736C17.4976 9.624 16.4896 11.544 16.4896 13.464C16.4896 16.248 18.1936 18.24 20.8096 18.24C22.3216 18.24 23.5696 17.592 24.3856 16.392C24.4576 16.248 24.5776 15.984 24.5776 15.792C24.5776 15.696 24.5056 15.504 24.3616 15.504C24.2656 15.504 24.1456 15.672 24.0496 15.792C23.6416 16.392 22.9216 16.656 21.8896 16.656C20.7376 16.656 19.7296 16.08 19.1776 15.36C18.6736 14.688 18.3136 13.584 18.3136 12.744C18.3136 12.48 18.3376 12.096 18.4096 11.904C18.4336 11.808 18.5536 11.712 18.6256 11.712C19.7296 11.736 23.7856 11.736 24.0496 11.736C24.3136 11.736 24.5296 11.424 24.5296 11.28C24.5296 10.44 24.1936 9.744 23.6896 9.24C23.0656 8.64 22.1296 8.328 21.2656 8.328ZM21.0256 8.928C21.8656 8.928 22.5616 9.72 22.5616 10.392C22.5616 10.896 22.2736 11.04 21.7456 11.04C20.5456 11.064 19.3936 11.064 18.7696 11.04C18.6976 11.04 18.6016 10.896 18.6496 10.776C19.0576 9.672 19.9696 8.928 21.0256 8.928Z" fill="#333333"/>
<path d="M25.4527 2.232C25.4527 2.328 25.5487 2.424 25.9327 2.688C26.4607 3.048 26.5087 3.192 26.5087 3.384C26.5807 4.056 26.5807 6.576 26.5807 8.232C26.5807 12.024 26.5087 14.592 26.4367 15.6C26.3407 16.8 26.2687 17.208 25.2367 17.448C24.9727 17.496 24.7087 17.64 24.7087 17.808C24.7087 17.976 24.8767 18.072 25.3807 18.072C25.8847 18.072 26.9647 18 27.5167 18C27.9487 18 29.0527 18.072 29.6287 18.072C29.9167 18.072 30.2527 18 30.2527 17.808C30.2527 17.664 30.0607 17.544 29.7247 17.424C28.6927 17.16 28.5967 16.872 28.5247 16.368C28.4047 15.696 28.4527 11.424 28.4527 8.256C28.4527 4.968 28.5967 1.8 28.6687 1.152C28.6687 1.056 28.5007 0.863996 28.4287 0.911996C27.7327 1.344 26.8927 1.512 25.8127 1.872C25.5727 1.968 25.4527 2.136 25.4527 2.232Z" fill="#333333"/>
<path d="M35.8213 8.28C34.1893 8.28 32.9413 8.976 32.2213 9.624C31.3093 10.392 30.5413 11.568 30.5413 13.368C30.5413 14.592 31.2853 16.2 32.3173 17.04C33.2053 17.784 34.4293 18.288 35.5333 18.288C36.6133 18.288 37.6213 18.024 38.6053 17.328C39.4933 16.752 40.6933 15.216 40.6933 13.2C40.6933 10.152 38.1973 8.28 35.8213 8.28ZM35.3653 9.024C36.0133 9.024 36.8293 9.408 37.3333 9.96C38.1973 11.016 38.4613 12.432 38.4613 13.632C38.4613 14.712 38.0293 16.176 37.4293 16.824C36.8293 17.424 36.3253 17.568 36.0613 17.568C34.9333 17.568 33.6133 16.704 33.0613 14.952C32.8453 14.352 32.7733 13.584 32.7733 12.792C32.7733 11.448 33.2773 10.248 33.8773 9.672C34.3813 9.264 34.8853 9.024 35.3653 9.024Z" fill="#333333"/>
<path d="M57.0984 6.48C57.0984 5.352 56.5224 4.152 55.7544 3.528C54.7464 2.688 53.3064 2.496 51.7704 2.496C50.4744 2.496 48.7224 2.616 47.8344 2.616H46.3944C45.9144 2.616 45.7464 2.736 45.7464 2.904C45.7464 3.09599 45.9624 3.24 46.3224 3.312C47.4264 3.576 47.6424 3.72 47.7144 4.512C47.8344 5.4 47.8584 7.56 47.8584 11.016C47.8584 12.6 47.7864 15.024 47.7144 15.984C47.6424 16.872 47.2584 17.04 46.1784 17.376C45.8664 17.496 45.6504 17.568 45.6504 17.736C45.6504 17.976 45.9384 18.096 46.2984 18.096C46.5624 18.096 47.8104 18 48.3144 18C49.8504 18 50.4504 18.144 51.4104 18.144C51.5784 18.144 52.0344 18.072 52.0344 17.808C52.0344 17.712 51.8664 17.52 51.4584 17.424C50.3064 17.136 50.0664 16.824 50.0184 15.792C49.9464 14.472 49.8984 11.4 49.9224 10.968C49.9464 10.896 50.0664 10.704 50.2104 10.704C50.8824 10.704 51.6744 10.896 51.8184 11.016C51.9624 11.088 52.3944 11.688 52.7304 12.168C53.6904 13.728 54.9144 15.6 55.7304 16.704C56.3784 17.544 57.6504 18.264 58.9944 18.264C59.4504 18.264 60.0744 18.216 60.3864 18.072C60.5304 18.024 60.7464 17.904 60.7464 17.784C60.7464 17.688 60.5544 17.496 60.3384 17.448C59.3544 17.232 58.6824 16.824 58.0344 16.056C56.6424 14.472 54.6264 11.208 54.3384 10.56C54.2904 10.488 54.3384 10.248 54.4344 10.2C54.6264 10.08 55.1064 9.864 55.2264 9.768C56.3784 9.024 57.0984 7.776 57.0984 6.48ZM54.7944 6.576C54.7944 8.064 53.9064 9.072 53.2584 9.504C52.9464 9.696 51.6984 10.104 50.3304 10.104C50.2104 10.104 50.0184 9.936 49.9704 9.768C49.8984 9.288 49.9704 4.776 50.0424 3.912C50.0424 3.84 50.2104 3.456 50.3304 3.408C50.5944 3.288 51.3144 3.24 51.4344 3.24C52.1784 3.24 53.1624 3.6 53.7384 4.152C54.4584 4.872 54.7944 5.976 54.7944 6.576Z" fill="#333333"/>
<path d="M65.1266 8.328C64.6706 8.328 63.8786 8.448 63.2546 8.736C61.3586 9.624 60.3506 11.544 60.3506 13.464C60.3506 16.248 62.0546 18.24 64.6706 18.24C66.1826 18.24 67.4306 17.592 68.2466 16.392C68.3186 16.248 68.4386 15.984 68.4386 15.792C68.4386 15.696 68.3666 15.504 68.2226 15.504C68.1266 15.504 68.0066 15.672 67.9106 15.792C67.5026 16.392 66.7826 16.656 65.7506 16.656C64.5986 16.656 63.5906 16.08 63.0386 15.36C62.5346 14.688 62.1746 13.584 62.1746 12.744C62.1746 12.48 62.1986 12.096 62.2706 11.904C62.2946 11.808 62.4146 11.712 62.4866 11.712C63.5906 11.736 67.6466 11.736 67.9106 11.736C68.1746 11.736 68.3906 11.424 68.3906 11.28C68.3906 10.44 68.0546 9.744 67.5506 9.24C66.9266 8.64 65.9906 8.328 65.1266 8.328ZM64.8866 8.928C65.7266 8.928 66.4226 9.72 66.4226 10.392C66.4226 10.896 66.1346 11.04 65.6066 11.04C64.4066 11.064 63.2546 11.064 62.6306 11.04C62.5586 11.04 62.4626 10.896 62.5106 10.776C62.9186 9.672 63.8306 8.928 64.8866 8.928Z" fill="#333333"/>
<path d="M72.8896 8.28C72.0496 8.28 71.3776 8.496 70.8976 8.784C69.9856 9.336 69.5536 10.152 69.5536 11.016C69.5536 12.144 70.3216 13.008 71.0656 13.488C71.8336 13.944 72.0016 14.088 72.6016 14.496C73.3456 14.976 73.6576 15.456 73.6576 16.032C73.6576 16.488 73.4656 17.016 73.1056 17.304C72.8656 17.52 72.4576 17.664 72.1456 17.664C71.3296 17.664 70.6336 17.208 69.9376 15.936C69.7936 15.672 69.6256 15.384 69.4096 15.384C69.2896 15.384 69.2176 15.6 69.2176 15.912C69.2176 16.632 69.5296 17.64 69.6016 17.76C70.0096 18.096 71.2096 18.288 71.9536 18.288C72.6736 18.288 73.5856 18.024 74.0416 17.712C74.6896 17.28 75.4576 16.488 75.4576 15.36C75.4576 14.28 74.9776 13.464 73.4896 12.6C71.9776 11.76 71.1856 11.16 71.1856 10.32C71.1856 9.792 71.6656 8.904 72.5536 8.904C73.3456 8.904 73.9696 9.384 74.4976 10.488C74.6176 10.752 74.7856 10.944 74.9056 10.944C75.0736 10.944 75.1936 10.704 75.1936 10.488C75.1936 10.32 75.1216 9.456 75.1216 9.048C75.0976 8.88 74.9776 8.736 74.9056 8.688C74.8576 8.664 74.4016 8.472 74.1376 8.424C73.8496 8.352 73.3456 8.28 72.8896 8.28Z" fill="#333333"/>
<path d="M81.0772 8.328C80.6212 8.328 79.8292 8.448 79.2052 8.736C77.3092 9.624 76.3012 11.544 76.3012 13.464C76.3012 16.248 78.0052 18.24 80.6212 18.24C82.1332 18.24 83.3812 17.592 84.1972 16.392C84.2692 16.248 84.3892 15.984 84.3892 15.792C84.3892 15.696 84.3172 15.504 84.1732 15.504C84.0772 15.504 83.9572 15.672 83.8612 15.792C83.4532 16.392 82.7332 16.656 81.7012 16.656C80.5492 16.656 79.5412 16.08 78.9892 15.36C78.4852 14.688 78.1252 13.584 78.1252 12.744C78.1252 12.48 78.1492 12.096 78.2212 11.904C78.2452 11.808 78.3652 11.712 78.4372 11.712C79.5412 11.736 83.5972 11.736 83.8612 11.736C84.1252 11.736 84.3412 11.424 84.3412 11.28C84.3412 10.44 84.0052 9.744 83.5012 9.24C82.8772 8.64 81.9412 8.328 81.0772 8.328ZM80.8372 8.928C81.6772 8.928 82.3732 9.72 82.3732 10.392C82.3732 10.896 82.0852 11.04 81.5572 11.04C80.3572 11.064 79.2052 11.064 78.5812 11.04C78.5092 11.04 78.4132 10.896 78.4612 10.776C78.8692 9.672 79.7812 8.928 80.8372 8.928Z" fill="#333333"/>
<path d="M85.2464 9.552C85.2464 9.648 85.5584 9.84 86.0864 10.248C86.3264 10.416 86.3264 10.728 86.3264 11.016V15.48C86.3024 16.92 86.2304 17.16 85.3184 17.472C85.1504 17.544 84.8384 17.64 84.8384 17.784C84.8384 18 85.0784 18.096 85.3424 18.096C85.9184 18.096 86.2544 18 86.9264 18C88.3184 18 89.2544 18.12 89.8784 18.12C90.2624 18.12 90.4784 18.024 90.4784 17.88C90.4784 17.784 90.4064 17.616 90.0224 17.496C89.6864 17.4 89.2304 17.28 88.9424 17.232C88.5344 17.136 88.3664 16.68 88.3184 15.984C88.2944 15.624 88.1984 11.328 88.1984 10.848C88.1984 10.68 88.2704 10.488 88.4384 10.32C88.6544 10.08 89.0144 10.032 89.3744 10.032C89.8544 10.032 90.4784 10.344 90.7424 10.584C90.8144 10.632 91.0544 10.68 91.1024 10.656C91.2704 10.584 91.8464 9.888 92.1344 9.48C92.2064 9.36 92.2784 9.192 92.2784 9.12C92.2784 8.904 92.0384 8.28 91.0304 8.28C90.2864 8.28 89.2304 8.904 88.3184 9.768C88.2944 9.816 88.1744 9.768 88.1744 9.672C88.1744 9.216 88.2224 8.784 88.2224 8.352C88.2224 8.28 88.1024 8.088 87.9824 8.088C87.9104 8.088 87.7664 8.16 87.4784 8.352C87.1904 8.52 86.3744 8.88 85.5584 9.168C85.3184 9.24 85.2464 9.504 85.2464 9.552Z" fill="#333333"/>
<path d="M92.4626 8.76C92.4626 8.928 92.5826 9.024 92.9426 9.168C93.5426 9.336 93.7826 9.648 93.9746 9.984C94.5986 11.064 95.8466 14.016 96.4226 15.552C96.9746 16.944 97.0706 17.28 97.3106 18.024C97.3826 18.288 97.5266 18.456 97.6466 18.456C97.8386 18.456 98.1026 18.192 98.2226 17.832C98.6306 16.584 98.6546 16.344 99.3266 14.64C100.047 12.96 100.887 10.776 101.295 10.128C101.679 9.648 101.943 9.36 102.495 9.144C102.879 9 103.023 8.904 103.023 8.76C103.023 8.616 102.759 8.496 102.543 8.496C102.087 8.496 101.343 8.616 100.911 8.616C100.335 8.616 100.023 8.544 99.5906 8.544C99.2786 8.544 99.1106 8.66399 99.1106 8.808C99.1106 8.976 99.3026 9.072 99.5186 9.144C100.239 9.408 100.455 9.576 100.263 10.176C100.023 10.92 98.7746 14.184 98.4626 14.856C98.4146 14.976 98.3426 15.024 98.2706 14.952C98.1026 14.784 96.8786 12.024 96.2066 10.032C96.0866 9.72 96.0386 9.408 96.7106 9.216C97.0226 9.12 97.2386 9 97.2386 8.832C97.2386 8.664 97.0466 8.568 96.6866 8.568C96.3986 8.568 95.7746 8.616 95.1506 8.616C94.8866 8.616 93.4706 8.496 93.0626 8.496C92.8226 8.496 92.4626 8.616 92.4626 8.76Z" fill="#333333"/>
<path d="M107.488 8.328C107.032 8.328 106.24 8.448 105.616 8.736C103.719 9.624 102.712 11.544 102.712 13.464C102.712 16.248 104.416 18.24 107.032 18.24C108.544 18.24 109.792 17.592 110.608 16.392C110.68 16.248 110.799 15.984 110.799 15.792C110.799 15.696 110.728 15.504 110.584 15.504C110.488 15.504 110.368 15.672 110.271 15.792C109.864 16.392 109.144 16.656 108.112 16.656C106.96 16.656 105.952 16.08 105.4 15.36C104.896 14.688 104.535 13.584 104.535 12.744C104.535 12.48 104.56 12.096 104.632 11.904C104.656 11.808 104.776 11.712 104.848 11.712C105.952 11.736 110.007 11.736 110.271 11.736C110.535 11.736 110.752 11.424 110.752 11.28C110.752 10.44 110.415 9.744 109.911 9.24C109.287 8.64 108.352 8.328 107.488 8.328ZM107.248 8.928C108.088 8.928 108.784 9.72 108.784 10.392C108.784 10.896 108.495 11.04 107.967 11.04C106.768 11.064 105.616 11.064 104.992 11.04C104.92 11.04 104.824 10.896 104.872 10.776C105.28 9.672 106.192 8.928 107.248 8.928Z" fill="#333333"/>
</svg>
