<svg width="60" height="60" viewBox="0 0 60 60" fill="none" xmlns="http://www.w3.org/2000/svg">
<ellipse cx="30" cy="30" rx="30" ry="30" transform="rotate(-180 30 30)" fill="white"/>
<path d="M23.2344 24.1406C23.2344 16.5208 29.4115 10.3437 37.0313 10.3437C44.6511 10.3437 50.8281 16.5208 50.8281 24.1406C50.8281 31.7604 44.6511 37.9375 37.0313 37.9375C29.4115 37.9375 23.2344 31.7604 23.2344 24.1406Z" stroke="black"/>
<ellipse cx="26.7188" cy="33.0469" rx="13.8281" ry="13.8281" transform="rotate(-180 26.7188 33.0469)" fill="white"/>
<path d="M9.40626 36.0937C9.40626 28.4739 15.5833 22.2969 23.2031 22.2969C30.8229 22.2969 37 28.4739 37 36.0937C37 43.7136 30.8229 49.8906 23.2031 49.8906C15.5833 49.8906 9.40626 43.7136 9.40626 36.0937Z" stroke="black"/>
</svg>
